<svg width="32" height="32" viewBox="0 0 32 32" fill="none" xmlns="http://www.w3.org/2000/svg">
<rect width="32" height="32" rx="8" fill="#2563EC"/>
<path d="M9 23H10.425L20.2 13.225L18.775 11.8L9 21.575V23ZM7 25V20.75L20.2 7.575C20.4 7.39167 20.6208 7.25 20.8625 7.15C21.1042 7.05 21.3583 7 21.625 7C21.8917 7 22.15 7.05 22.4 7.15C22.65 7.25 22.8667 7.4 23.05 7.6L24.425 9C24.625 9.18333 24.7708 9.4 24.8625 9.65C24.9542 9.9 25 10.15 25 10.4C25 10.6667 24.9542 10.9208 24.8625 11.1625C24.7708 11.4042 24.625 11.625 24.425 11.825L11.25 25H7ZM19.475 12.525L18.775 11.8L20.2 13.225L19.475 12.525Z" fill="#FEFEFE"/>
<rect x="15" y="23" width="10" height="2" rx="1" fill="white"/>
</svg>
